<svg width="80" height="80" viewBox="0 0 80 80" fill="none" xmlns="http://www.w3.org/2000/svg">
<g clip-path="url(#clip0)">
<path d="M67.928 25.576C65.24 27.016 63.08 28.408 61.448 29.752C59.912 31 58.712 32.248 57.848 33.496C56.984 34.648 56.408 35.752 56.12 36.808C55.928 37.864 55.832 38.872 55.832 39.832C55.832 41.56 56.6 42.424 58.136 42.424C64.856 42.424 68.216 45.592 68.216 51.928C68.216 55.48 67.208 58.216 65.192 60.136C63.176 62.056 60.392 63.016 56.84 63.016C52.52 63.016 49.208 61.768 46.904 59.272C44.6 56.68 43.448 52.936 43.448 48.04C43.448 41.512 45.272 36.088 48.92 31.768C52.568 27.352 57.8 23.464 64.616 20.104L67.928 25.576ZM34.664 25.576C31.976 27.016 29.816 28.408 28.184 29.752C26.648 31 25.448 32.248 24.584 33.496C23.72 34.648 23.144 35.752 22.856 36.808C22.664 37.864 22.568 38.872 22.568 39.832C22.568 41.56 23.336 42.424 24.872 42.424C31.592 42.424 34.952 45.592 34.952 51.928C34.952 55.48 33.944 58.216 31.928 60.136C29.912 62.056 27.128 63.016 23.576 63.016C19.256 63.016 15.944 61.768 13.64 59.272C11.432 56.68 10.328 52.936 10.328 48.04C10.328 41.512 12.104 36.088 15.656 31.768C19.304 27.352 24.536 23.464 31.352 20.104L34.664 25.576Z" fill="#555555"/>
</g>
<defs>
<clipPath id="clip0">
<rect width="80" height="80" fill="white"/>
</clipPath>
</defs>
</svg>
